<svg width="40" height="40" viewBox="0 0 40 40" fill="none" xmlns="http://www.w3.org/2000/svg">
<path fill-rule="evenodd" clip-rule="evenodd" d="M20 40C31.0457 40 40 31.0457 40 20C40 8.9543 31.0457 0 20 0C8.9543 0 0 8.9543 0 20C0 31.0457 8.9543 40 20 40Z" fill="#0084FE"/>
<path fill-rule="evenodd" clip-rule="evenodd" d="M18.3445 21.653L18.4454 21.7539C20.1826 23.4358 21.6365 24.2257 22.8071 24.1236L23.1444 23.8088C23.6242 23.3723 23.9859 23.0956 24.2297 22.9787C24.7371 22.7353 25.0933 22.7401 26.055 23.2605C27.3202 23.9451 28.1938 24.7408 28.6402 25.1872C29.0547 25.6018 28.9259 26.3158 28.7804 26.6326L28.684 26.8093C28.4249 27.2593 27.4856 28.7438 25.6855 28.9977C25.0013 29.0943 24.1377 29.0058 23.1252 28.7008C20.9561 27.9499 18.7961 26.5735 16.6451 24.5718L16.2625 24.2084L16.2589 24.212L16.0743 24.0242L15.8863 23.8394L15.8899 23.8358L15.5265 23.4532C13.5248 21.3023 12.1485 19.1422 11.3975 16.9732C11.0926 15.9606 11.0041 15.097 11.1006 14.4129C11.3725 12.4853 13.0553 11.5448 13.3682 11.3695L13.4 11.3516C13.6709 11.1954 14.4647 11.0117 14.9111 11.4581L15.1224 11.6755C15.5826 12.1621 16.251 12.9588 16.8378 14.0433C17.3582 15.0051 17.363 15.3612 17.1197 15.8686C16.9768 16.1666 16.5951 16.6408 15.9748 17.2912C15.8726 18.4618 16.6625 19.9157 18.3445 21.653Z" fill="white"/>
</svg>
