<svg width="40" height="40" viewBox="0 0 40 40" fill="none" xmlns="http://www.w3.org/2000/svg">
<path fill-rule="evenodd" clip-rule="evenodd" d="M20 40C31.0457 40 40 31.0457 40 20C40 8.9543 31.0457 0 20 0C8.9543 0 0 8.9543 0 20C0 31.0457 8.9543 40 20 40Z" fill="#FE294D"/>
<path fill-rule="evenodd" clip-rule="evenodd" d="M27.1522 12.8677C25.1911 10.9578 22.7467 10 19.9704 10C17.2055 10 14.9015 11.0276 12.9405 13.0738C10.9819 15.1176 10 17.5937 10 20.4863C10 23.169 10.9861 25.4583 12.9498 27.3367C14.9097 29.2284 17.2781 30.1777 20.0381 30.1777H20.3697C21.0258 30.1659 21.5437 29.629 21.532 28.9784C21.5201 28.318 20.9813 27.7888 20.3208 27.7888H20.0381C17.9575 27.7888 16.1916 27.074 14.7241 25.6383C13.2574 24.2194 12.5286 22.5084 12.5286 20.4863C12.5286 18.2768 13.2615 16.4047 14.732 14.8543C16.1995 13.3069 17.9623 12.5379 20.0381 12.5379C22.1198 12.5379 23.8946 13.2453 25.3782 14.6658C26.4632 15.7271 26.9807 16.9287 27.176 18.296C27.1931 18.4161 27.2095 18.7436 27.2231 19.173L27.2448 20.0717C27.2601 20.9095 26.7105 22.294 25.7597 22.3C24.809 22.306 24.4356 20.9095 24.396 20.1084L24.3917 20.0125C24.3788 19.7041 24.3671 19.2095 24.3566 18.5287L24.3317 16.2721C24.3244 15.6419 23.9664 15.1075 23.3523 15.0456L23.2056 15.0394C22.8072 15.0394 22.4543 15.2344 22.2373 15.5343L22.1625 15.6514C21.8892 15.4207 21.5671 15.239 21.1982 15.1067C20.7222 14.9293 20.1869 14.8406 19.5969 14.8406C18.2427 14.8406 17.0838 15.3563 16.1386 16.3779C15.2131 17.3962 14.7493 18.6195 14.7493 20.035C14.7493 21.4819 15.2118 22.7367 16.1334 23.7858C17.0785 24.86 18.2393 25.4033 19.5969 25.4033C20.5781 25.4033 21.6392 24.9518 22.7801 24.0487C22.9571 23.9086 23.2061 23.9045 23.3876 24.0387L23.6157 24.1997C24.2969 24.6571 24.9495 24.8859 25.5736 24.8859C26.7722 24.8859 27.7751 24.496 28.6016 23.5548C29.3961 22.65 29.8017 21.1842 29.8017 19.7915C29.8017 17.0768 29.1148 14.7791 27.1522 12.8677ZM16.9615 20.1516C16.9615 18.4947 18.0808 17.1516 19.4615 17.1516C20.8422 17.1516 21.9615 18.4947 21.9615 20.1516C21.9615 21.8084 20.8422 23.1516 19.4615 23.1516C18.0808 23.1516 16.9615 21.8084 16.9615 20.1516Z" fill="white"/>
</svg>
