<svg width="40" height="40" viewBox="0 0 40 40" fill="none" xmlns="http://www.w3.org/2000/svg">
<path fill-rule="evenodd" clip-rule="evenodd" d="M20 40C31.0457 40 40 31.0457 40 20C40 8.9543 31.0457 0 20 0C8.9543 0 0 8.9543 0 20C0 31.0457 8.9543 40 20 40Z" fill="white" fill-opacity="0.2"/>
<path fill-rule="evenodd" clip-rule="evenodd" d="M16.75 13.25C16.75 18.2206 20.7794 22.25 25.75 22.25C26.5976 22.25 27.4179 22.1329 28.1955 21.9138L28.5642 21.8012C28.8854 21.6938 29.2329 21.8672 29.3403 22.1885C29.3743 22.29 29.3808 22.3981 29.3603 22.5019L29.3307 22.604C27.8845 26.3461 24.2522 29 20 29C14.4772 29 10 24.5229 10 19C10 14.9355 12.4249 11.4374 15.9069 9.87339L16.0305 9.81993L16.1679 9.76438C16.5422 9.61767 16.9646 9.80221 17.1113 10.1766C17.1589 10.298 17.1728 10.4295 17.1524 10.5572L17.1306 10.652C16.883 11.4748 16.75 12.3469 16.75 13.25Z" fill="white"/>
</svg>
