<svg width="40" height="40" viewBox="0 0 40 40" fill="none" xmlns="http://www.w3.org/2000/svg">
<path fill-rule="evenodd" clip-rule="evenodd" d="M20 40C31.0457 40 40 31.0457 40 20C40 8.9543 31.0457 0 20 0C8.9543 0 0 8.9543 0 20C0 31.0457 8.9543 40 20 40Z" fill="#8A54FF"/>
<path d="M19.9883 8.33337C13.5483 8.33337 8.33331 13.56 8.33331 20C8.33331 26.44 13.5483 31.6667 19.9883 31.6667C26.44 31.6667 31.6666 26.44 31.6666 20C31.6666 13.56 26.44 8.33337 19.9883 8.33337ZM28.0733 15.3334H24.6316C24.2583 13.875 23.7216 12.475 23.0216 11.18C25.1683 11.915 26.9533 13.4084 28.0733 15.3334ZM20 10.7134C20.9683 12.1134 21.7266 13.665 22.2283 15.3334H17.7716C18.2733 13.665 19.0316 12.1134 20 10.7134ZM10.97 22.3334C10.7833 21.5867 10.6666 20.805 10.6666 20C10.6666 19.195 10.7833 18.4134 10.97 17.6667H14.9133C14.82 18.4367 14.75 19.2067 14.75 20C14.75 20.7934 14.82 21.5634 14.9133 22.3334H10.97ZM11.9266 24.6667H15.3683C15.7416 26.125 16.2783 27.525 16.9783 28.82C14.8316 28.085 13.0466 26.6034 11.9266 24.6667ZM15.3683 15.3334H11.9266C13.0466 13.3967 14.8316 11.915 16.9783 11.18C16.2783 12.475 15.7416 13.875 15.3683 15.3334ZM20 29.2867C19.0316 27.8867 18.2733 26.335 17.7716 24.6667H22.2283C21.7266 26.335 20.9683 27.8867 20 29.2867ZM22.73 22.3334H17.27C17.165 21.5634 17.0833 20.7934 17.0833 20C17.0833 19.2067 17.165 18.425 17.27 17.6667H22.73C22.835 18.425 22.9166 19.2067 22.9166 20C22.9166 20.7934 22.835 21.5634 22.73 22.3334ZM23.0216 28.82C23.7216 27.525 24.2583 26.125 24.6316 24.6667H28.0733C26.9533 26.5917 25.1683 28.085 23.0216 28.82ZM25.0866 22.3334C25.18 21.5634 25.25 20.7934 25.25 20C25.25 19.2067 25.18 18.4367 25.0866 17.6667H29.03C29.2166 18.4134 29.3333 19.195 29.3333 20C29.3333 20.805 29.2166 21.5867 29.03 22.3334H25.0866Z" fill="white"/>
</svg>
