<svg width="40" height="40" viewBox="0 0 40 40" fill="none" xmlns="http://www.w3.org/2000/svg">
<path fill-rule="evenodd" clip-rule="evenodd" d="M20 40C31.0457 40 40 31.0457 40 20C40 8.9543 31.0457 0 20 0C8.9543 0 0 8.9543 0 20C0 31.0457 8.9543 40 20 40Z" fill="#00B674"/>
<path d="M10.75 30C10.75 30 9 30 9 28.25C9 26.5 10.75 21.25 19.5 21.25C28.25 21.25 30 26.5 30 28.25C30 30 28.25 30 28.25 30H10.75ZM19.5 19.5C20.8924 19.5 22.2277 18.9469 23.2123 17.9623C24.1969 16.9777 24.75 15.6424 24.75 14.25C24.75 12.8576 24.1969 11.5223 23.2123 10.5377C22.2277 9.55312 20.8924 9 19.5 9C18.1076 9 16.7723 9.55312 15.7877 10.5377C14.8031 11.5223 14.25 12.8576 14.25 14.25C14.25 15.6424 14.8031 16.9777 15.7877 17.9623C16.7723 18.9469 18.1076 19.5 19.5 19.5V19.5Z" fill="white"/>
</svg>
