<svg width="40" height="40" viewBox="0 0 40 40" fill="none" xmlns="http://www.w3.org/2000/svg">
<path fill-rule="evenodd" clip-rule="evenodd" d="M20 40C31.0457 40 40 31.0457 40 20C40 8.9543 31.0457 0 20 0C8.9543 0 0 8.9543 0 20C0 31.0457 8.9543 40 20 40Z" fill="#52575A"/>
<path fill-rule="evenodd" clip-rule="evenodd" d="M15.5 24.8437C15.5 25.1717 15.7798 25.4375 16.125 25.4375L26.125 25.4375C26.4702 25.4375 26.75 25.1717 26.75 24.8437L26.75 14.1562C26.75 13.8283 26.4702 13.5625 26.125 13.5625L16.125 13.5625C15.7798 13.5625 15.5 13.8283 15.5 14.1562L15.5 16.5312C15.5 16.8592 15.2202 17.125 14.875 17.125C14.5298 17.125 14.25 16.8592 14.25 16.5312L14.25 14.1562C14.25 13.1725 15.0895 12.375 16.125 12.375L26.125 12.375C27.1605 12.375 28 13.1725 28 14.1562L28 24.8437C28 25.8275 27.1605 26.625 26.125 26.625L16.125 26.625C15.0895 26.625 14.25 25.8275 14.25 24.8438L14.25 22.4688C14.25 22.1408 14.5298 21.875 14.875 21.875C15.2202 21.875 15.5 22.1408 15.5 22.4687L15.5 24.8437Z" fill="white"/>
<path fill-rule="evenodd" clip-rule="evenodd" d="M8.18306 20.5136C7.93898 20.2817 7.93898 19.9058 8.18306 19.6739L11.9331 16.1114C12.1771 15.8795 12.5729 15.8795 12.8169 16.1114C13.061 16.3433 13.061 16.7192 12.8169 16.9511L10.1339 19.5L21.125 19.5C21.4702 19.5 21.75 19.7658 21.75 20.0937C21.75 20.4217 21.4702 20.6875 21.125 20.6875L10.1339 20.6875L12.8169 23.2364C13.061 23.4683 13.061 23.8442 12.8169 24.0761C12.5729 24.308 12.1771 24.308 11.9331 24.0761L8.18306 20.5136Z" fill="white"/>
</svg>
