<svg width="40" height="40" viewBox="0 0 40 40" fill="none" xmlns="http://www.w3.org/2000/svg">
<path fill-rule="evenodd" clip-rule="evenodd" d="M20 40C31.0457 40 40 31.0457 40 20C40 8.9543 31.0457 0 20 0C8.9543 0 0 8.9543 0 20C0 31.0457 8.9543 40 20 40Z" fill="#0584FE"/>
<path fill-rule="evenodd" clip-rule="evenodd" d="M20 11C22.7614 11 25 13.2386 25 16V18C26.1046 18 27 18.8954 27 20V27C27 28.1046 26.1046 29 25 29H15C13.8954 29 13 28.1046 13 27V20C13 18.8954 13.8954 18 15 18V16C15 13.2386 17.2386 11 20 11ZM20 20.5C19.1716 20.5 18.5 21.1716 18.5 22C18.5 22.603 18.8558 23.1228 19.3689 23.3612L19.5003 23.4148L19.5006 25.9589C19.5006 26.2044 19.6775 26.4085 19.9107 26.4508L20.0007 26.4588C20.2769 26.4588 20.5007 26.2349 20.5007 25.9587L20.5007 23.4144C21.0829 23.2083 21.5 22.6528 21.5 22C21.5 21.1716 20.8284 20.5 20 20.5ZM20 12.5C18.1274 12.5 16.5983 14.2069 16.5046 16.3534L16.5 16.5625V18H23.5V16.5625C23.5 14.3188 21.933 12.5 20 12.5Z" fill="white"/>
</svg>
